<svg width="1440" height="1024" viewBox="0 0 1440 1024" fill="none" xmlns="http://www.w3.org/2000/svg">
<g clip-path="url(#clip0_34_2)">
<rect width="1440" height="1024" fill="white"/>
<path d="M14.1339 105.732L495.866 -376L566.577 -305.289L14.1339 232L14.1339 105.732Z" fill="#3084B4"/>
<rect x="-229.103" y="857.693" width="1502.97" height="147.256" transform="rotate(-45 -229.103 857.693)" fill="#3084B4"/>
<rect x="-63" y="964.764" width="1502.97" height="6.56439" transform="rotate(-45 -63 964.764)" fill="#3084B4"/>
<path d="M546 968.764L1608.76 -94.0001L1613.41 -89.3584L583.5 950L546 968.764Z" fill="#3084B4"/>
<rect x="82" y="1073.28" width="1530.57" height="6.56439" transform="rotate(-45 82 1073.28)" fill="#3084B4"/>
<rect x="-63" y="396.28" width="1530.57" height="6.56439" transform="rotate(-45 -63 396.28)" fill="#3084B4"/>
<rect x="317" y="1107.76" width="1619.53" height="55.2517" transform="rotate(-45 317 1107.76)" fill="#3084B4"/>
<path d="M135 1038.76L741.5 436.5L721 497.5L200.5 1011L135 1038.76Z" fill="#3084B4"/>
<path d="M171.634 96.7319L653.366 -385L653.366 -345.865L152.415 168.781L171.634 96.7319Z" fill="#3084B4"/>
<path d="M90.6873 504.391L642.722 -47.6436L627.75 -17.7688L48.4526 566.744L90.6873 504.391Z" fill="#3084B4"/>
<rect x="1103.87" y="1080.63" width="1502.97" height="221.731" transform="rotate(-45 1103.87 1080.63)" fill="#3084B4"/>
<rect x="614" y="1074.76" width="1502.97" height="23.0172" transform="rotate(-45 614 1074.76)" fill="#3084B4"/>
<rect x="662" y="1137.76" width="1502.97" height="47.777" transform="rotate(-45 662 1137.76)" fill="#3084B4"/>
<rect x="698" y="1180.76" width="1502.97" height="47.777" transform="rotate(-45 698 1180.76)" fill="#3084B4"/>
<path d="M976 1006L1766.76 209.999L1749.5 247.5L1017 990.5L976 1006Z" fill="#3084B4"/>
</g>
<defs>
<clipPath id="clip0_34_2">
<rect width="1440" height="1024" fill="white"/>
</clipPath>
</defs>
</svg>
