<svg width="25" height="26" viewBox="0 0 25 26" fill="none" xmlns="http://www.w3.org/2000/svg">
<path d="M12.5 14.5625C16.3818 14.5625 19.5312 11.4131 19.5312 7.53125C19.5312 3.64941 16.3818 0.5 12.5 0.5C8.61816 0.5 5.46875 3.64941 5.46875 7.53125C5.46875 11.4131 8.61816 14.5625 12.5 14.5625ZM18.75 16.125H16.0596C14.9756 16.623 13.7695 16.9062 12.5 16.9062C11.2305 16.9062 10.0293 16.623 8.94043 16.125H6.25C2.79785 16.125 0 18.9229 0 22.375V23.1562C0 24.4502 1.0498 25.5 2.34375 25.5H22.6562C23.9502 25.5 25 24.4502 25 23.1562V22.375C25 18.9229 22.2021 16.125 18.75 16.125Z" fill="#FF3F3F"/>
</svg>
