<svg width="25" height="18" viewBox="0 0 25 18" fill="none" xmlns="http://www.w3.org/2000/svg">
<path d="M24.8489 8.19965C22.4952 3.6072 17.8355 0.5 12.5 0.5C7.16447 0.5 2.50345 3.60938 0.151018 8.20009C0.0517306 8.39649 0 8.61348 0 8.83355C0 9.05362 0.0517306 9.27061 0.151018 9.46701C2.50475 14.0595 7.16447 17.1667 12.5 17.1667C17.8355 17.1667 22.4965 14.0573 24.8489 9.46658C24.9482 9.27018 25 9.05319 25 8.83312C25 8.61304 24.9482 8.39605 24.8489 8.19965ZM12.5 15.0833C11.2638 15.0833 10.0555 14.7168 9.02766 14.03C7.99985 13.3433 7.19878 12.3671 6.72573 11.2251C6.25268 10.0831 6.12891 8.8264 6.37007 7.61402C6.61123 6.40164 7.20648 5.28799 8.08056 4.41392C8.95464 3.53984 10.0683 2.94458 11.2807 2.70343C12.493 2.46227 13.7497 2.58604 14.8917 3.05909C16.0338 3.53213 17.0099 4.33321 17.6967 5.36102C18.3834 6.38883 18.75 7.5972 18.75 8.83333C18.7504 9.65421 18.589 10.4671 18.275 11.2256C17.9611 11.984 17.5007 12.6732 16.9203 13.2536C16.3398 13.8341 15.6507 14.2944 14.8922 14.6084C14.1338 14.9223 13.3208 15.0837 12.5 15.0833ZM12.5 4.66667C12.1281 4.67186 11.7586 4.72719 11.4015 4.83116C11.6958 5.23119 11.8371 5.72347 11.7996 6.21873C11.7621 6.71398 11.5484 7.1794 11.1972 7.5306C10.846 7.88179 10.3806 8.0955 9.88537 8.13297C9.39012 8.17043 8.89784 8.02917 8.49781 7.73481C8.27001 8.57404 8.31113 9.46357 8.61538 10.2782C8.91962 11.0928 9.47167 11.7916 10.1938 12.276C10.916 12.7605 11.7719 13.0063 12.641 12.9788C13.5102 12.9514 14.3489 12.652 15.039 12.123C15.7291 11.5939 16.236 10.8617 16.4882 10.0295C16.7404 9.19729 16.7253 8.30693 16.445 7.48376C16.1647 6.66058 15.6333 5.94602 14.9256 5.44067C14.2179 4.93532 13.3696 4.66462 12.5 4.66667Z" fill="black"/>
</svg>
